<svg xmlns="http://www.w3.org/2000/svg" xmlns:xlink="http://www.w3.org/1999/xlink" width="500" zoomAndPan="magnify" viewBox="0 0 375 374.999991" height="500" preserveAspectRatio="xMidYMid meet" version="1.0"><defs><g/><clipPath id="7e38f675e9"><path d="M 37.5 80.722656 L 337.5 80.722656 L 337.5 230.722656 L 37.5 230.722656 Z M 37.5 80.722656 " clip-rule="nonzero"/></clipPath></defs><rect x="-37.5" width="450" fill="#ffffff" y="-37.499999" height="449.999989" fill-opacity="1"/><rect x="-37.5" width="450" fill="#ffffff" y="-37.499999" height="449.999989" fill-opacity="1"/><g clip-path="url(#7e38f675e9)"><path fill="#7447e1" d="M 66 155.722656 C 66 130.074219 86.851562 109.222656 112.5 109.222656 L 172.5 109.222656 L 172.5 80.722656 L 112.5 80.722656 C 71.101562 80.722656 37.5 114.324219 37.5 155.722656 C 37.5 197.125 71.101562 230.722656 112.5 230.722656 L 172.5 230.722656 L 172.5 202.222656 L 112.5 202.222656 C 86.851562 202.222656 66 181.375 66 155.722656 Z M 127.5 170.722656 L 247.5 170.722656 L 247.5 140.722656 L 127.5 140.722656 Z M 262.5 80.722656 L 202.5 80.722656 L 202.5 109.222656 L 262.5 109.222656 C 288.148438 109.222656 309 130.074219 309 155.722656 C 309 181.375 288.148438 202.222656 262.5 202.222656 L 202.5 202.222656 L 202.5 230.722656 L 262.5 230.722656 C 303.898438 230.722656 337.5 197.125 337.5 155.722656 C 337.5 114.324219 303.898438 80.722656 262.5 80.722656 Z M 262.5 80.722656 " fill-opacity="1" fill-rule="nonzero"/></g><g fill="#000000" fill-opacity="1"><g transform="translate(44.664785, 282.987812)"><g><path d="M 5.046875 -3.375 C 2.492188 -6.15625 1.21875 -9.566406 1.21875 -13.609375 C 1.21875 -17.648438 2.492188 -21.066406 5.046875 -23.859375 C 7.597656 -26.660156 10.84375 -28.0625 14.78125 -28.0625 C 18.394531 -28.0625 21.367188 -26.929688 23.703125 -24.671875 L 23.703125 -27.265625 L 33.109375 -27.265625 L 33.109375 0 L 23.8125 0 L 23.8125 -3.078125 L 23.703125 -3.078125 C 21.367188 -0.492188 18.394531 0.796875 14.78125 0.796875 C 10.84375 0.796875 7.597656 -0.59375 5.046875 -3.375 Z M 13.046875 -18.234375 C 11.828125 -17.023438 11.21875 -15.484375 11.21875 -13.609375 C 11.21875 -11.734375 11.800781 -10.203125 12.96875 -9.015625 C 14.132812 -7.828125 15.675781 -7.234375 17.59375 -7.234375 C 19.4375 -7.234375 20.953125 -7.832031 22.140625 -9.03125 C 23.328125 -10.238281 23.921875 -11.765625 23.921875 -13.609375 C 23.921875 -15.484375 23.304688 -17.023438 22.078125 -18.234375 C 20.859375 -19.441406 19.363281 -20.046875 17.59375 -20.046875 C 15.789062 -20.046875 14.273438 -19.441406 13.046875 -18.234375 Z M 13.046875 -18.234375 "/></g></g></g><g fill="#000000" fill-opacity="1"><g transform="translate(80.968905, 282.987812)"><g><path d="M 4.078125 -42.46875 C 5.179688 -43.570312 6.492188 -44.125 8.015625 -44.125 C 9.546875 -44.125 10.859375 -43.570312 11.953125 -42.46875 C 13.054688 -41.375 13.609375 -40.0625 13.609375 -38.53125 C 13.609375 -37.007812 13.054688 -35.695312 11.953125 -34.59375 C 10.859375 -33.5 9.546875 -32.953125 8.015625 -32.953125 C 6.492188 -32.953125 5.179688 -33.5 4.078125 -34.59375 C 2.984375 -35.695312 2.4375 -37.007812 2.4375 -38.53125 C 2.4375 -40.0625 2.984375 -41.375 4.078125 -42.46875 Z M 3.1875 -27.265625 L 3.1875 0 L 12.59375 0 L 12.59375 -27.265625 Z M 3.1875 -27.265625 "/></g></g></g><g fill="#000000" fill-opacity="1"><g transform="translate(97.021379, 282.987812)"><g><path d="M 3.1875 0 L 3.1875 -27.265625 L 12.59375 -27.265625 L 12.59375 -23.328125 L 12.703125 -23.328125 C 12.773438 -23.472656 12.890625 -23.648438 13.046875 -23.859375 C 13.203125 -24.078125 13.546875 -24.453125 14.078125 -24.984375 C 14.617188 -25.515625 15.1875 -25.992188 15.78125 -26.421875 C 16.382812 -26.847656 17.164062 -27.226562 18.125 -27.5625 C 19.082031 -27.894531 20.054688 -28.0625 21.046875 -28.0625 C 22.078125 -28.0625 23.085938 -27.921875 24.078125 -27.640625 C 25.066406 -27.359375 25.796875 -27.078125 26.265625 -26.796875 L 27 -26.359375 L 23.0625 -18.390625 C 21.894531 -19.378906 20.265625 -19.875 18.171875 -19.875 C 17.046875 -19.875 16.070312 -19.625 15.25 -19.125 C 14.4375 -18.632812 13.859375 -18.035156 13.515625 -17.328125 C 13.179688 -16.617188 12.941406 -16.015625 12.796875 -15.515625 C 12.660156 -15.023438 12.59375 -14.640625 12.59375 -14.359375 L 12.59375 0 Z M 3.1875 0 "/></g></g></g><g fill="#000000" fill-opacity="1"><g transform="translate(123.508501, 282.987812)"><g><path d="M 17.703125 -20.359375 C 15.929688 -20.359375 14.40625 -19.703125 13.125 -18.390625 C 11.851562 -17.078125 11.21875 -15.5 11.21875 -13.65625 C 11.21875 -11.78125 11.851562 -10.1875 13.125 -8.875 C 14.40625 -7.5625 15.929688 -6.90625 17.703125 -6.90625 C 18.554688 -6.90625 19.363281 -7.007812 20.125 -7.21875 C 20.882812 -7.4375 21.441406 -7.648438 21.796875 -7.859375 L 22.265625 -8.1875 L 25.46875 -1.640625 C 25.21875 -1.460938 24.867188 -1.238281 24.421875 -0.96875 C 23.984375 -0.707031 22.972656 -0.347656 21.390625 0.109375 C 19.816406 0.566406 18.125 0.796875 16.3125 0.796875 C 12.3125 0.796875 8.796875 -0.609375 5.765625 -3.421875 C 2.734375 -6.242188 1.21875 -9.625 1.21875 -13.5625 C 1.21875 -17.53125 2.734375 -20.9375 5.765625 -23.78125 C 8.796875 -26.632812 12.3125 -28.0625 16.3125 -28.0625 C 18.125 -28.0625 19.789062 -27.847656 21.3125 -27.421875 C 22.832031 -27.003906 23.914062 -26.582031 24.5625 -26.15625 L 25.46875 -25.515625 L 22.265625 -19.078125 C 21.097656 -19.929688 19.578125 -20.359375 17.703125 -20.359375 Z M 17.703125 -20.359375 "/></g></g></g><g fill="#000000" fill-opacity="1"><g transform="translate(149.60707, 282.987812)"><g><path d="M 5.765625 -3.234375 C 2.734375 -5.929688 1.21875 -9.390625 1.21875 -13.609375 C 1.21875 -17.828125 2.796875 -21.289062 5.953125 -24 C 9.109375 -26.707031 13.003906 -28.0625 17.640625 -28.0625 C 22.210938 -28.0625 26.066406 -26.695312 29.203125 -23.96875 C 32.335938 -21.238281 33.90625 -17.78125 33.90625 -13.59375 C 33.90625 -9.414062 32.375 -5.972656 29.3125 -3.265625 C 26.25 -0.554688 22.359375 0.796875 17.640625 0.796875 C 12.753906 0.796875 8.796875 -0.546875 5.765625 -3.234375 Z M 13.046875 -18.234375 C 11.828125 -17.023438 11.21875 -15.484375 11.21875 -13.609375 C 11.21875 -11.734375 11.800781 -10.203125 12.96875 -9.015625 C 14.132812 -7.828125 15.675781 -7.234375 17.59375 -7.234375 C 19.4375 -7.234375 20.953125 -7.832031 22.140625 -9.03125 C 23.328125 -10.238281 23.921875 -11.765625 23.921875 -13.609375 C 23.921875 -15.484375 23.304688 -17.023438 22.078125 -18.234375 C 20.859375 -19.441406 19.363281 -20.046875 17.59375 -20.046875 C 15.789062 -20.046875 14.273438 -19.441406 13.046875 -18.234375 Z M 13.046875 -18.234375 "/></g></g></g><g fill="#000000" fill-opacity="1"><g transform="translate(184.741802, 282.987812)"><g><path d="M 3.1875 0 L 3.1875 -27.265625 L 12.59375 -27.265625 L 12.59375 -24.40625 L 12.703125 -24.40625 C 15.148438 -26.84375 17.753906 -28.0625 20.515625 -28.0625 C 21.859375 -28.0625 23.195312 -27.882812 24.53125 -27.53125 C 25.863281 -27.175781 27.140625 -26.625 28.359375 -25.875 C 29.578125 -25.132812 30.566406 -24.082031 31.328125 -22.71875 C 32.097656 -21.351562 32.484375 -19.769531 32.484375 -17.96875 L 32.484375 0 L 23.0625 0 L 23.0625 -15.421875 C 23.0625 -16.835938 22.609375 -18.078125 21.703125 -19.140625 C 20.804688 -20.203125 19.628906 -20.734375 18.171875 -20.734375 C 16.753906 -20.734375 15.46875 -20.179688 14.3125 -19.078125 C 13.164062 -17.984375 12.59375 -16.765625 12.59375 -15.421875 L 12.59375 0 Z M 3.1875 0 "/></g></g></g><g fill="#000000" fill-opacity="1"><g transform="translate(219.876534, 282.987812)"><g><path d="M 3.1875 0 L 3.1875 -27.265625 L 12.59375 -27.265625 L 12.59375 -24.40625 L 12.703125 -24.40625 C 15.148438 -26.84375 17.753906 -28.0625 20.515625 -28.0625 C 21.859375 -28.0625 23.195312 -27.882812 24.53125 -27.53125 C 25.863281 -27.175781 27.140625 -26.625 28.359375 -25.875 C 29.578125 -25.132812 30.566406 -24.082031 31.328125 -22.71875 C 32.097656 -21.351562 32.484375 -19.769531 32.484375 -17.96875 L 32.484375 0 L 23.0625 0 L 23.0625 -15.421875 C 23.0625 -16.835938 22.609375 -18.078125 21.703125 -19.140625 C 20.804688 -20.203125 19.628906 -20.734375 18.171875 -20.734375 C 16.753906 -20.734375 15.46875 -20.179688 14.3125 -19.078125 C 13.164062 -17.984375 12.59375 -16.765625 12.59375 -15.421875 L 12.59375 0 Z M 3.1875 0 "/></g></g></g><g fill="#000000" fill-opacity="1"><g transform="translate(255.011266, 282.987812)"><g><path d="M 30.78125 -12.328125 L 11 -12.328125 C 11 -10.421875 11.617188 -9.003906 12.859375 -8.078125 C 14.097656 -7.160156 15.445312 -6.703125 16.90625 -6.703125 C 18.425781 -6.703125 19.628906 -6.90625 20.515625 -7.3125 C 21.398438 -7.71875 22.410156 -8.523438 23.546875 -9.734375 L 30.359375 -6.328125 C 27.515625 -1.578125 22.800781 0.796875 16.21875 0.796875 C 12.101562 0.796875 8.570312 -0.609375 5.625 -3.421875 C 2.6875 -6.242188 1.21875 -9.640625 1.21875 -13.609375 C 1.21875 -17.578125 2.6875 -20.976562 5.625 -23.8125 C 8.570312 -26.644531 12.101562 -28.0625 16.21875 -28.0625 C 20.539062 -28.0625 24.054688 -26.8125 26.765625 -24.3125 C 29.472656 -21.820312 30.828125 -18.253906 30.828125 -13.609375 C 30.828125 -12.972656 30.8125 -12.546875 30.78125 -12.328125 Z M 11.265625 -17.546875 L 21.640625 -17.546875 C 21.421875 -18.960938 20.859375 -20.050781 19.953125 -20.8125 C 19.054688 -21.570312 17.898438 -21.953125 16.484375 -21.953125 C 14.921875 -21.953125 13.675781 -21.546875 12.75 -20.734375 C 11.832031 -19.921875 11.335938 -18.859375 11.265625 -17.546875 Z M 11.265625 -17.546875 "/></g></g></g><g fill="#000000" fill-opacity="1"><g transform="translate(287.063073, 282.987812)"><g><path d="M 17.703125 -20.359375 C 15.929688 -20.359375 14.40625 -19.703125 13.125 -18.390625 C 11.851562 -17.078125 11.21875 -15.5 11.21875 -13.65625 C 11.21875 -11.78125 11.851562 -10.1875 13.125 -8.875 C 14.40625 -7.5625 15.929688 -6.90625 17.703125 -6.90625 C 18.554688 -6.90625 19.363281 -7.007812 20.125 -7.21875 C 20.882812 -7.4375 21.441406 -7.648438 21.796875 -7.859375 L 22.265625 -8.1875 L 25.46875 -1.640625 C 25.21875 -1.460938 24.867188 -1.238281 24.421875 -0.96875 C 23.984375 -0.707031 22.972656 -0.347656 21.390625 0.109375 C 19.816406 0.566406 18.125 0.796875 16.3125 0.796875 C 12.3125 0.796875 8.796875 -0.609375 5.765625 -3.421875 C 2.734375 -6.242188 1.21875 -9.625 1.21875 -13.5625 C 1.21875 -17.53125 2.734375 -20.9375 5.765625 -23.78125 C 8.796875 -26.632812 12.3125 -28.0625 16.3125 -28.0625 C 18.125 -28.0625 19.789062 -27.847656 21.3125 -27.421875 C 22.832031 -27.003906 23.914062 -26.582031 24.5625 -26.15625 L 25.46875 -25.515625 L 22.265625 -19.078125 C 21.097656 -19.929688 19.578125 -20.359375 17.703125 -20.359375 Z M 17.703125 -20.359375 "/></g></g></g><g fill="#000000" fill-opacity="1"><g transform="translate(313.161642, 282.987812)"><g><path d="M 4.78125 -27.265625 L 4.78125 -37.421875 L 14.1875 -37.421875 L 14.1875 -27.265625 L 19.9375 -27.265625 L 19.9375 -20.09375 L 14.1875 -20.09375 L 14.1875 -11.421875 C 14.1875 -8.910156 14.894531 -7.65625 16.3125 -7.65625 C 16.664062 -7.65625 17.035156 -7.722656 17.421875 -7.859375 C 17.816406 -8.003906 18.125 -8.148438 18.34375 -8.296875 L 18.65625 -8.5 L 21 -0.90625 C 18.976562 0.226562 16.675781 0.796875 14.09375 0.796875 C 12.3125 0.796875 10.78125 0.488281 9.5 -0.125 C 8.226562 -0.75 7.265625 -1.582031 6.609375 -2.625 C 5.960938 -3.675781 5.492188 -4.773438 5.203125 -5.921875 C 4.921875 -7.078125 4.78125 -8.3125 4.78125 -9.625 L 4.78125 -20.09375 L 0.84375 -20.09375 L 0.84375 -27.265625 Z M 4.78125 -27.265625 "/></g></g></g></svg>